HIERARCHY
ROOT Hips
{
	OFFSET -0.179506 -22.333345 2.821913
	CHANNELS 6 Xposition Yposition Zposition Zrotation Yrotation Xrotation 
	JOINT LeftUpLeg
	{
		OFFSET 6.951974 -9.140623 -0.681533
		CHANNELS 3 Zrotation Yrotation Xrotation
		JOINT LeftLeg
		{
			OFFSET 3.427654 -37.519855 -0.449580
			CHANNELS 3 Zrotation Yrotation Xrotation
			JOINT LeftFoot
			{
				OFFSET -1.359570 -39.796059 -4.369333
				CHANNELS 3 Zrotation Yrotation Xrotation
				JOINT LeftToe
				{
					OFFSET 2.635814 -5.579078 11.928840
					CHANNELS 3 Zrotation Yrotation Xrotation
					End Site
					{
						OFFSET 0.000000 0.000000 0.000000
					}
				}
			}
		}
	}
	JOINT RightUpLeg
	{
		OFFSET -6.767048 -9.052170 -0.431982
		CHANNELS 3 Zrotation Yrotation Xrotation
		JOINT RightLeg
		{
			OFFSET -3.829005 -38.256897 -0.885003
			CHANNELS 3 Zrotation Yrotation Xrotation
			JOINT RightFoot
			{
				OFFSET 1.577377 -39.841461 -4.231180
				CHANNELS 3 Zrotation Yrotation Xrotation
				JOINT RightToe
				{
					OFFSET -2.537174 -4.814398 12.334795
					CHANNELS 3 Zrotation Yrotation Xrotation
					End Site
					{
						OFFSET 0.000000 0.000000 0.000000
					}
				}
			}
		}
	}
	JOINT Spine
	{
		OFFSET -0.253288 10.896323 -2.669631
		CHANNELS 3 Zrotation Yrotation Xrotation
		JOINT Spine1
		{
			OFFSET 0.548704 13.518043 0.109247
			CHANNELS 3 Zrotation Yrotation Xrotation
			JOINT Spine2
			{
				OFFSET 0.145701 5.292222 2.542457
				CHANNELS 3 Zrotation Yrotation Xrotation
				JOINT Neck
				{
					OFFSET -0.277840 21.387037 -4.285703
					CHANNELS 3 Zrotation Yrotation Xrotation
					JOINT Head
					{
						OFFSET 0.515184 6.496960 5.134897
						CHANNELS 3 Zrotation Yrotation Xrotation
						End Site
						{
							OFFSET 0.000000 0.000000 0.000000
						}
					}
				}
				JOINT LeftShoulder
				{
					OFFSET 7.884473 12.174932 -3.408961
					CHANNELS 3 Zrotation Yrotation Xrotation
					JOINT LeftArm
					{
						OFFSET 9.097692 3.046888 -0.886815
						CHANNELS 3 Zrotation Yrotation Xrotation
						JOINT LeftForeArm
						{
							OFFSET 25.961220 -1.277207 -2.745643
							CHANNELS 3 Zrotation Yrotation Xrotation
							JOINT LeftHand
							{
								OFFSET 24.923361 0.898606 -0.117091
								CHANNELS 3 Zrotation Yrotation Xrotation
								End Site
								{
									OFFSET 0.000000 0.000000 0.000000
								}
							}
						}
					}
				}
				JOINT RightShoulder
				{
					OFFSET -8.175920 11.883285 -3.861528
					CHANNELS 3 Zrotation Yrotation Xrotation
					JOINT RightArm
					{
						OFFSET -9.601238 3.255117 -0.914307
						CHANNELS 3 Zrotation Yrotation Xrotation
						JOINT RightForeArm
						{
							OFFSET -25.374195 -1.332924 -2.140099
							CHANNELS 3 Zrotation Yrotation Xrotation
							JOINT RightHand
							{
								OFFSET -25.529810 0.777228 -0.555919
								CHANNELS 3 Zrotation Yrotation Xrotation
								End Site
								{
									OFFSET 0.000000 0.000000 0.000000
								}
							}
						}
					}
				}
			}
		}
	}
}
MOTION
Frames: 16
Frame Time: 0.033333
-24.131603 -332.244995 90.590027 -127.183784 -8.838885 85.098615 -3.474534 0.776100 -4.932882 -15.166443 4.397741 47.933689 3.975352 15.842173 -26.644043 nan nan nan -3.969439 -6.051182 -9.061864 5.830297 -10.895702 20.696795 -3.330268 -15.918460 -14.861820 nan nan nan -3.976200 1.232491 5.358837 3.434432 -4.026299 11.005197 -0.671798 -1.481098 -3.614454 5.521219 -21.414658 4.806088 6.106647 -15.363146 -2.019136 -22.986203 7.536521 3.510571 -57.816857 -11.426452 15.040234 12.993390 -30.771238 -6.923923 -17.709531 -6.095599 10.715099 22.642181 -0.402394 -0.356628 58.371530 -2.478483 9.178764 -13.929078 26.621778 -11.126525 13.089881 8.924700 -11.532647 
-24.619823 -332.145508 90.727859 -127.918960 -8.134584 85.417252 -2.431994 0.421131 -5.215529 -11.084540 7.165835 47.128316 3.355299 17.302094 -15.603034 nan nan nan -3.051486 -2.422525 -7.229661 4.388636 -4.115582 18.846699 -4.121411 -12.866694 -14.901649 nan nan nan -3.182972 1.452043 4.518670 3.552869 -4.386243 12.498350 -0.603354 -1.430139 -4.904094 4.931220 -21.230476 5.707331 6.393913 -15.112913 -2.607090 -23.457239 6.888563 3.782289 -56.949223 -10.252478 15.148989 11.131350 -30.867427 -4.609276 -16.038663 -6.965192 8.582499 22.911617 -0.855342 0.081770 57.835002 -2.119863 9.913787 -13.800820 27.417891 -11.423112 11.891124 8.952251 -10.390317 
-25.033609 -332.205658 90.844284 -129.073672 -7.990861 85.629211 -2.179541 0.103924 -5.754776 -10.531335 7.147522 46.881298 3.701341 17.628360 -15.419475 nan nan nan -2.960371 -1.803430 -7.043563 4.131506 -2.573706 18.983149 -3.803074 -12.179588 -14.538437 nan nan nan -3.029169 1.620359 4.557074 3.660782 -4.352873 12.430691 -0.606674 -1.313858 -5.050617 4.880634 -21.028533 5.552708 6.217734 -14.819406 -2.353822 -23.612004 6.864250 3.855107 -56.933010 -9.835239 15.157512 10.380158 -30.588222 -2.788805 -16.862616 -6.055942 9.721824 23.178419 -0.928256 0.389786 57.348703 -1.555100 9.822628 -13.802358 28.345405 -10.112734 12.849723 8.197168 -8.191111 
-25.460888 -332.148346 90.940804 -130.035610 -7.910908 85.786306 -1.925887 -0.105091 -6.153641 -9.815522 7.050440 46.424501 3.775120 18.260825 -16.048452 nan nan nan -2.880076 -1.439736 -6.573329 3.968096 -1.685247 18.598191 -3.489996 -11.843823 -14.456372 nan nan nan -2.983572 1.802354 4.415073 3.727178 -4.362017 12.436142 -0.606755 -1.335607 -5.129505 4.790432 -20.674626 5.618941 6.111360 -14.623784 -2.272358 -23.628398 6.860331 3.819206 -57.123786 -9.489189 15.424170 9.766258 -29.965767 -1.854105 -16.062784 -6.561950 9.442794 23.113162 -0.933261 0.247891 57.581771 -1.585547 10.129293 -13.601394 28.856662 -9.895162 11.733416 8.813978 -8.697860 
-25.833494 -332.067261 91.033966 -130.952659 -7.924195 85.934565 -1.659921 -0.155914 -6.518298 -9.190478 6.876539 45.702879 3.577328 19.117744 -18.110374 nan nan nan -2.897771 -1.491625 -6.325144 3.949488 -1.627423 18.247329 -3.056450 -11.740861 -14.398338 nan nan nan -3.018418 2.000704 4.402504 3.778818 -4.313567 12.220973 -0.612072 -1.456388 -5.121886 4.574342 -20.423298 5.798220 6.038859 -14.393507 -2.319526 -23.713286 6.978318 3.651851 -57.268628 -9.185787 15.692310 9.451462 -29.494407 -1.664278 -15.009408 -7.657874 8.662878 23.016192 -1.005517 -0.372765 57.990765 -1.893139 10.594054 -13.294013 29.299311 -9.457585 10.266689 9.743880 -9.452050 
-26.193264 -332.175690 91.257401 -132.475458 -6.970605 86.126289 -0.635084 0.142635 -6.948840 -8.729041 6.099670 44.974492 2.839368 20.237888 -17.839763 nan nan nan -1.862566 -1.402040 -6.382809 4.163801 -1.775268 17.912460 -3.278230 -12.288951 -14.274021 nan nan nan -2.392651 1.760714 4.153363 4.221382 -4.122133 12.979156 -0.384485 -0.709666 -5.699073 3.824768 -20.737389 6.638405 6.312143 -13.650582 -3.172241 -25.614495 6.765855 4.017196 -53.115626 -7.907227 15.992170 5.002016 -33.640003 2.737068 -11.209793 -10.319021 8.258138 23.105525 -0.363269 -0.592570 56.952931 -2.671364 10.213020 -11.970138 30.558420 -7.324157 7.225080 11.146095 -8.203482 
-26.531315 -332.153473 91.352104 -134.132269 -6.516123 86.008588 -0.543155 0.869389 -5.566489 -5.346331 9.837706 40.506608 3.931766 22.674311 -19.331749 nan nan nan -1.370543 -1.475095 -6.043932 4.167645 -1.841060 17.919828 -2.749868 -11.935637 -14.384897 nan nan nan -1.836016 2.083041 4.504700 4.189459 -3.751550 13.077550 -0.331433 -0.893422 -5.667631 4.660918 -19.441385 5.730379 5.384511 -14.152870 -2.983988 -25.085022 7.021592 3.020259 -54.357202 -7.379126 16.658638 4.691906 -32.373096 2.131949 -14.658150 -10.265120 7.442537 22.767007 -0.377037 -1.066011 57.238657 -2.471500 11.031852 -12.786682 31.074984 -9.473901 9.545218 11.362796 -10.490262 
-26.839436 -332.232117 91.454170 -135.444154 -6.461605 86.131019 -0.402403 0.373334 -5.601955 -4.874473 9.254732 39.201892 4.242770 22.985316 -19.776006 nan nan nan -1.415456 -1.281451 -6.023218 4.196269 -1.335529 18.080651 -2.557181 -11.689070 -14.469444 nan nan nan -1.674621 2.305696 4.678601 4.157500 -3.591409 12.893019 -0.368707 -0.859990 -5.575967 4.591007 -18.995202 5.392706 5.266141 -13.953696 -2.838435 -24.793724 6.980342 2.933359 -54.881016 -7.045131 17.013514 4.569475 -31.942793 2.941368 -15.358018 -10.310179 6.995260 22.670879 -0.379387 -1.250242 57.483515 -2.361617 11.269713 -13.119273 31.722618 -9.831431 10.162973 11.547817 -11.588763 
-27.405653 -332.224609 91.629478 -136.020839 -5.989558 85.576073 -0.032542 -0.109861 -4.931187 -3.814586 8.922132 37.909916 4.066293 23.001950 -20.288204 nan nan nan -1.164928 -1.044442 -4.399642 4.205266 -0.379696 17.296572 -2.720961 -11.337725 -14.718518 nan nan nan -0.676245 2.020871 4.792466 3.979547 -3.925144 13.587180 -0.335041 -0.492250 -6.332194 3.768102 -18.416364 6.673660 4.721899 -14.357981 -3.283779 -25.691938 5.607985 3.345948 -54.355718 -5.618764 17.053931 5.394697 -30.349255 3.588668 -16.697423 -14.521318 6.207061 21.876552 0.564274 -1.296544 58.395503 -3.605596 10.957263 -14.367902 32.145259 -9.805873 11.324117 14.053175 -11.989729 
-27.729925 -332.268738 91.725197 -137.317875 -5.686124 85.649897 0.382063 -0.472497 -4.926615 -3.343319 8.144376 36.517182 4.185573 23.295305 -20.671031 nan nan nan -0.755874 -0.210380 -4.010008 3.577854 2.039792 17.295176 -2.687690 -10.630936 -14.504112 nan nan nan -0.270339 1.961382 4.900758 4.085124 -3.954798 13.787196 -0.464316 -0.097324 -6.551735 3.590297 -18.122765 6.693536 4.146946 -14.219296 -3.393987 -25.760312 5.434819 3.398235 -54.463387 -5.308559 17.015266 4.598292 -30.115062 5.192339 -15.599546 -14.665384 5.204856 21.691922 0.461082 -1.034827 59.073445 -3.361798 11.881569 -13.913061 33.494164 -2.936181 6.802076 12.706425 -5.417272 
-28.168343 -332.300446 91.717781 -138.351693 -5.734351 85.884073 0.204803 -0.966147 -5.031182 -2.720869 6.996343 35.051241 4.397354 23.356758 -21.001122 nan nan nan -0.866022 0.033854 -3.709181 3.356849 2.219096 16.427864 -2.196411 -10.448329 -14.927131 nan nan nan -0.302773 2.090848 4.657583 4.087863 -3.934456 13.918190 -0.443243 -0.132020 -6.547288 3.413864 -17.625490 6.372031 4.060172 -14.017754 -3.030919 -25.391748 5.562666 3.204268 -55.645519 -5.533698 16.845752 4.852176 -28.412863 4.823645 -16.354751 -14.718536 5.833201 21.626340 0.459566 -0.927684 59.297086 -3.038535 12.058226 -14.139709 34.214373 -2.990747 6.757762 12.968961 -4.990982 
-28.547939 -332.359039 91.725845 -139.445290 -5.603473 86.100440 0.318097 -1.245650 -5.226711 -2.205269 6.077375 33.608951 4.528970 23.310639 -21.184917 nan nan nan -0.890646 0.200654 -3.706686 3.334700 2.681157 16.220101 -1.897668 -10.021520 -15.000119 nan nan nan -0.142289 2.173212 4.537283 4.061178 -3.972498 14.071336 -0.453914 -0.273964 -6.639063 3.384009 -17.100948 6.177528 3.937265 -13.618238 -2.831238 -25.471129 5.632011 3.203299 -56.085505 -5.184592 16.460399 5.244587 -27.909425 4.898017 -17.225141 -14.409479 6.584134 21.649974 0.604692 -0.651066 59.305505 -2.507468 12.245399 -14.088284 35.071545 -2.847006 6.896592 13.006925 -5.105914 
-28.911144 -332.392212 91.734978 -140.505322 -5.455672 86.235475 0.487179 -1.731144 -5.199336 -2.027797 4.734171 32.041974 4.544509 23.214110 -21.471729 nan nan nan -0.915635 0.352422 -3.590568 3.398121 3.540109 16.166121 -1.899809 -9.829204 -15.145016 nan nan nan 0.035840 2.155554 4.578597 4.006709 -4.029947 14.165365 -0.483218 -0.228911 -6.761181 3.284397 -16.856032 5.951484 3.672160 -13.132280 -2.509170 -25.925810 5.839869 3.217407 -55.912258 -4.684588 16.091015 5.389800 -28.259283 4.535304 -17.568012 -14.164390 6.483131 21.736347 0.608757 -0.485992 59.287199 -1.990216 12.157127 -14.065516 35.809997 -2.623129 7.627677 13.019706 -4.704963 
-29.281370 -332.439331 91.760872 -141.547826 -5.348275 86.321746 0.613182 -2.327743 -5.045505 -2.126300 2.883299 30.495101 4.737919 23.356600 -21.855615 nan nan nan -1.033444 -0.017132 -3.760884 3.689035 3.715506 16.697082 -2.298143 -9.919244 -15.304958 nan nan nan 0.054917 2.215624 4.649890 4.050988 -4.107970 14.290490 -0.457340 -0.118833 -6.887320 3.056316 -16.751992 5.697540 3.519015 -12.400902 -2.056926 -26.264015 5.385734 3.360011 -55.210181 -3.871565 16.538778 4.738087 -28.825226 5.397526 -17.510013 -14.013324 5.116964 21.883889 1.000021 -0.647674 59.042012 -2.064966 11.889634 -13.950737 36.622748 -3.122195 8.573773 13.155593 -4.272988 
-29.639750 -332.495819 91.763435 -142.646323 -5.100111 86.487935 0.925774 -2.912979 -5.106451 -2.042498 1.190474 29.284499 4.689077 22.849457 -22.155405 nan nan nan -0.929845 -0.044393 -3.922927 3.690889 4.283773 17.001213 -2.454566 -9.607078 -15.396041 nan nan nan 0.296536 2.172820 4.601535 3.894689 -4.062783 14.279879 -0.340710 -0.145484 -6.693340 3.070923 -16.217877 5.354929 3.270477 -11.944149 -1.988322 -26.425599 5.550640 3.168588 -56.260235 -3.805768 15.712114 6.010451 -28.052388 2.758830 -18.363127 -12.567364 7.075616 21.944610 1.112633 -0.324326 59.076132 -1.314354 11.690102 -14.108944 37.313504 -3.523277 9.873458 12.969900 -3.704470 
-29.968746 -332.621002 91.756409 -143.890211 -5.082605 86.950498 0.995500 -3.325656 -5.443756 -2.277143 -0.778339 27.881932 4.814828 22.750805 -22.350503 nan nan nan -1.083565 0.246385 -4.511602 3.776391 5.233843 17.311523 -2.235864 -9.625586 -15.549266 nan nan nan 0.319108 2.272415 4.184320 3.895061 -4.090336 14.521967 -0.571561 0.019643 -6.781131 2.651572 -16.337884 5.261326 3.766878 -11.111323 -1.849627 -26.865731 4.789525 3.438495 -54.433196 -2.546779 16.813876 4.521219 -29.639556 5.084393 -17.493245 -12.432873 4.222035 22.249783 1.534912 -0.726231 58.747715 -1.816402 11.812168 -13.555159 38.484310 -3.825761 8.711913 12.782332 -4.588752 
